<?xml version="1.0" encoding="utf-8"?>
<!-- Generator: Adobe Illustrator 21.0.0, SVG Export Plug-In . SVG Version: 6.00 Build 0)  -->
<svg version="1.1" id="Layer_1" xmlns="http://www.w3.org/2000/svg" xmlns:xlink="http://www.w3.org/1999/xlink" x="0px" y="0px"
	 viewBox="0 0 21.6 21.6" style="enable-background:new 0 0 21.6 21.6;" xml:space="preserve">
<style type="text/css">
	.st0{fill:#00E7FF;}
	.st1{fill:#0080FF;}
</style>
<circle class="st0" cx="14.9" cy="9.5" r="2.2"/>
<path class="st0" d="M11.3,18c-1,0-1.6-1.4-0.9-2.3c1.1-1.7,2.9-2.7,4.8-2.6c1.7,0.1,3.3,1,4.3,2.6c0.6,0.9,0,2.2-1,2.2
	C16.1,18,13.7,18,11.3,18z"/>
<g>
	<circle class="st1" cx="8.7" cy="8" r="3"/>
	<path class="st1" d="M3.6,18.9c-1.4,0-2.2-1.6-1.3-2.7C3.9,14.1,6.4,12.9,9,13c2.4,0.1,4.6,1.3,6,3.2c0.8,1.1,0,2.7-1.4,2.7
		C10.4,18.9,7,18.9,3.6,18.9z"/>
</g>
</svg>
