<?xml version="1.0" encoding="utf-8"?>
<!-- Generator: Adobe Illustrator 21.0.0, SVG Export Plug-In . SVG Version: 6.00 Build 0)  -->
<svg version="1.1" id="Layer_1" xmlns="http://www.w3.org/2000/svg" xmlns:xlink="http://www.w3.org/1999/xlink" x="0px" y="0px"
	 viewBox="0 0 21.6 21.6" style="enable-background:new 0 0 21.6 21.6;" xml:space="preserve">
<style type="text/css">
	.st0{fill:#0080FF;}
	.st1{fill:#FFFFFF;}
	.st2{fill:#FFFFFF;stroke:#0080FF;stroke-miterlimit:10;}
</style>
<circle class="st0" cx="10.8" cy="10.8" r="10.4"/>
<g>
	<g>
		<circle class="st1" cx="15.1" cy="7.6" r="2"/>
		<path class="st1" d="M11.7,14.7c-0.9,0-1.4-1-0.8-1.8c1-1.4,2.7-2.2,4.4-2.1c1.6,0.1,3,0.8,3.9,2.1c0.5,0.7,0,1.8-0.9,1.8
			C16.2,14.7,14,14.7,11.7,14.7z"/>
	</g>
	<g>
		<circle class="st1" cx="6.6" cy="7.6" r="2"/>
		<path class="st1" d="M3.3,14.7c-0.9,0-1.4-1-0.8-1.8c1-1.4,2.7-2.2,4.4-2.1c1.6,0.1,3,0.8,3.9,2.1c0.5,0.7,0,1.8-0.9,1.8
			C7.7,14.7,5.5,14.7,3.3,14.7z"/>
	</g>
	<g>
		<circle class="st2" cx="11" cy="6.1" r="3"/>
		<path class="st2" d="M5.9,17c-1.4,0-2.2-1.6-1.3-2.7c1.6-2.1,4.1-3.3,6.7-3.2c2.4,0.1,4.6,1.3,6,3.2c0.8,1.1,0,2.7-1.4,2.7
			C12.7,17,9.3,17,5.9,17z"/>
	</g>
</g>
</svg>
