<?xml version="1.0" encoding="utf-8"?>
<!-- Generator: Adobe Illustrator 21.0.0, SVG Export Plug-In . SVG Version: 6.00 Build 0)  -->
<svg version="1.1" id="Layer_1" xmlns="http://www.w3.org/2000/svg" xmlns:xlink="http://www.w3.org/1999/xlink" x="0px" y="0px"
	 viewBox="0 0 21.6 21.6" style="enable-background:new 0 0 21.6 21.6;" xml:space="preserve">
<style type="text/css">
	.st0{fill:#0055FF;}
	.st1{fill:#FFFFFF;}
</style>
<path class="st0" d="M16.8,16.1H5.3c-1.7,0-3-1.4-3-3v-6c0-1.7,1.4-3,3-3h11.5c1.7,0,3,1.4,3,3V13C19.8,14.7,18.5,16.1,16.8,16.1z"
	/>
<polygon class="st1" points="8.3,7.1 8.3,13.6 14.6,10.4 "/>
<path class="st0" d="M15.5,18.8H6.1c-0.2,0-0.4-0.3-0.4-0.8l0,0c0-0.5,0.2-0.8,0.4-0.8h9.3c0.2,0,0.4,0.3,0.4,0.8l0,0
	C15.9,18.3,15.7,18.8,15.5,18.8z"/>
</svg>
